<svg width="393" height="393" viewBox="0 0 393 393" version="1.1" xmlns="http://www.w3.org/2000/svg" xmlns:xlink="http://www.w3.org/1999/xlink">
<g id="Canvas" fill="none">
<g id="Frame" clip-path="url(#clip0)">
<rect width="393" height="393" fill="#4D4D4D"/>
<g id="rex-css-framework">
<g id="ReX Logos">
<g id="White bg">
<g id="REX CSS framework">
<g id="Title">
<g id="R">
<path fill-rule="evenodd" clip-rule="evenodd" d="M 20.4388 19.0688L 20.4388 53.5289L 33.6558 53.5289C 42.7851 53.5289 50.2794 45.7651 50.2794 36.2307C 50.2794 26.8325 42.6489 19.0688 33.6558 19.0688L 20.4388 19.0688ZM 20.4388 107.194L -9.56548e-08 107.194L -9.56548e-08 -8.56952e-09L 33.6558 -8.56952e-09C 55.3209 -8.56952e-09 72.0807 15.9361 72.0807 36.3669C 72.0807 50.6685 66.6304 60.6116 55.7297 65.9236L 82.5726 107.194L 56.8198 107.194L 36.381 72.5977L 20.4388 72.5977L 20.4388 107.194Z" transform="translate(66.7454 120.013)" fill="#B6B6B6"/>
</g>
<g id="X">
<path fill-rule="evenodd" clip-rule="evenodd" d="M 96.1984 107.194L 62.5426 52.984L 94.5633 -8.56952e-09L 70.1731 -8.56952e-09L 48.0992 37.4566L 26.0254 -8.56952e-09L 1.63509 -8.56952e-09L 33.6558 52.984L -4.15828e-06 107.194L 25.2078 107.194L 48.0992 69.3287L 70.9906 107.194L 96.1984 107.194Z" transform="translate(231.724 120.013)" fill="#B6B6B6"/>
</g>
<g id="CSS FRAMEWORK">
<path d="M 18.5824 20.9203C 18.417 23.2072 17.5703 25.0075 16.0425 26.3213C 14.5244 27.6351 12.5197 28.2919 10.0284 28.2919C 7.30354 28.2919 5.15773 27.3772 3.59095 25.5476C 2.0339 23.7084 1.25537 21.1879 1.25537 17.9862L 1.25537 16.6871C 1.25537 14.6434 1.61544 12.8431 2.33558 11.286C 3.05571 9.72898 4.08239 8.53687 5.41562 7.70968C 6.75857 6.87277 8.31562 6.45431 10.0868 6.45431C 12.5391 6.45431 14.5146 7.11119 16.0133 8.42495C 17.512 9.73871 18.3781 11.5828 18.6116 13.9573L 14.2324 13.9573C 14.1254 12.5852 13.741 11.5926 13.0792 10.9795C 12.4272 10.3567 11.4297 10.0453 10.0868 10.0453C 8.62703 10.0453 7.53223 10.5708 6.80237 11.6218C 6.08223 12.6631 5.71243 14.2834 5.69297 16.4827L 5.69297 18.0884C 5.69297 20.385 6.03844 22.0637 6.72938 23.1245C 7.43005 24.1852 8.52972 24.7156 10.0284 24.7156C 11.3811 24.7156 12.3883 24.4091 13.05 23.796C 13.7215 23.1731 14.1059 22.2146 14.2032 20.9203L 18.5824 20.9203ZM 32.4791 22.4238C 32.4791 21.5966 32.1872 20.9641 31.6033 20.5262C 31.0194 20.0785 29.9684 19.6114 28.4502 19.1248C 26.9321 18.6285 25.7303 18.1419 24.8447 17.6651C 22.4313 16.361 21.2245 14.6045 21.2245 12.3954C 21.2245 11.2471 21.5457 10.2253 22.188 9.32999C 22.84 8.42495 23.7694 7.71941 24.9761 7.21337C 26.1925 6.70733 27.5549 6.45431 29.0633 6.45431C 30.5814 6.45431 31.9341 6.73166 33.1214 7.28636C 34.3086 7.83133 35.2283 8.60499 35.8803 9.60734C 36.542 10.6097 36.8729 11.7483 36.8729 13.0231L 32.4937 13.0231C 32.4937 12.05 32.1872 11.2958 31.5741 10.7605C 30.961 10.2156 30.0997 9.94308 28.9903 9.94308C 27.9199 9.94308 27.0878 10.1718 26.4942 10.6292C 25.9006 11.0768 25.6038 11.6704 25.6038 12.41C 25.6038 13.101 25.9492 13.68 26.6402 14.1471C 27.3408 14.6142 28.3675 15.0521 29.7202 15.4609C 32.2115 16.2102 34.0264 17.1396 35.165 18.249C 36.3036 19.3584 36.8729 20.7403 36.8729 22.3946C 36.8729 24.2339 36.1771 25.679 34.7855 26.73C 33.3939 27.7713 31.5205 28.2919 29.1655 28.2919C 27.5306 28.2919 26.0417 27.9951 24.6987 27.4015C 23.3558 26.7982 22.3291 25.9758 21.6187 24.9346C 20.918 23.8933 20.5677 22.6866 20.5677 21.3144L 24.9615 21.3144C 24.9615 23.6597 26.3628 24.8324 29.1655 24.8324C 30.2068 24.8324 31.0194 24.6231 31.6033 24.2047C 32.1872 23.7765 32.4791 23.1829 32.4791 22.4238ZM 50.8718 22.4238C 50.8718 21.5966 50.5798 20.9641 49.9959 20.5262C 49.412 20.0785 48.361 19.6114 46.8429 19.1248C 45.3248 18.6285 44.1229 18.1419 43.2374 17.6651C 40.8239 16.361 39.6172 14.6045 39.6172 12.3954C 39.6172 11.2471 39.9383 10.2253 40.5806 9.32999C 41.2326 8.42495 42.162 7.71941 43.3687 7.21337C 44.5852 6.70733 45.9476 6.45431 47.456 6.45431C 48.9741 6.45431 50.3268 6.73166 51.514 7.28636C 52.7013 7.83133 53.6209 8.60499 54.2729 9.60734C 54.9347 10.6097 55.2656 11.7483 55.2656 13.0231L 50.8864 13.0231C 50.8864 12.05 50.5798 11.2958 49.9667 10.7605C 49.3536 10.2156 48.4924 9.94308 47.383 9.94308C 46.3125 9.94308 45.4805 10.1718 44.8869 10.6292C 44.2932 11.0768 43.9964 11.6704 43.9964 12.41C 43.9964 13.101 44.3419 13.68 45.0328 14.1471C 45.7335 14.6142 46.7602 15.0521 48.1129 15.4609C 50.6041 16.2102 52.4191 17.1396 53.5577 18.249C 54.6963 19.3584 55.2656 20.7403 55.2656 22.3946C 55.2656 24.2339 54.5698 25.679 53.1781 26.73C 51.7865 27.7713 49.9132 28.2919 47.5582 28.2919C 45.9233 28.2919 44.4343 27.9951 43.0914 27.4015C 41.7484 26.7982 40.7217 25.9758 40.0113 24.9346C 39.3107 23.8933 38.9603 22.6866 38.9603 21.3144L 43.3541 21.3144C 43.3541 23.6597 44.7555 24.8324 47.5582 24.8324C 48.5994 24.8324 49.412 24.6231 49.9959 24.2047C 50.5798 23.7765 50.8718 23.1829 50.8718 22.4238ZM 78.4754 19.3146L 70.0673 19.3146L 70.0673 28L 65.6881 28L 65.6881 6.74626L 79.5264 6.74626L 79.5264 10.2934L 70.0673 10.2934L 70.0673 15.782L 78.4754 15.782L 78.4754 19.3146ZM 89.9343 20.2196L 86.4455 20.2196L 86.4455 28L 82.0663 28L 82.0663 6.74626L 89.9635 6.74626C 92.4742 6.74626 94.4108 7.30582 95.7732 8.42495C 97.1356 9.54408 97.8168 11.1255 97.8168 13.1691C 97.8168 14.6191 97.5006 15.8307 96.868 16.8038C 96.2452 17.7673 95.2964 18.5361 94.0215 19.1102L 98.6197 27.7956L 98.6197 28L 93.9194 28L 89.9343 20.2196ZM 86.4455 16.6725L 89.9781 16.6725C 91.0777 16.6725 91.9292 16.3951 92.5326 15.8404C 93.136 15.276 93.4376 14.5023 93.4376 13.5194C 93.4376 12.5171 93.1506 11.7288 92.5764 11.1547C 92.012 10.5805 91.141 10.2934 89.9635 10.2934L 86.4455 10.2934L 86.4455 16.6725ZM 113.159 23.6208L 105.48 23.6208L 104.021 28L 99.3642 28L 107.276 6.74626L 111.334 6.74626L 119.29 28L 114.633 28L 113.159 23.6208ZM 106.663 20.0736L 111.976 20.0736L 109.305 12.1181L 106.663 20.0736ZM 126.997 6.74626L 132.456 22.1611L 137.887 6.74626L 143.638 6.74626L 143.638 28L 139.244 28L 139.244 22.1903L 139.682 12.1619L 133.945 28L 130.938 28L 125.216 12.1765L 125.654 22.1903L 125.654 28L 121.275 28L 121.275 6.74626L 126.997 6.74626ZM 160.25 18.7891L 151.842 18.7891L 151.842 24.482L 161.709 24.482L 161.709 28L 147.462 28L 147.462 6.74626L 161.68 6.74626L 161.68 10.2934L 151.842 10.2934L 151.842 15.3587L 160.25 15.3587L 160.25 18.7891ZM 180.832 21.8691L 183.693 6.74626L 188.058 6.74626L 183.343 28L 178.934 28L 175.475 13.7822L 172.015 28L 167.607 28L 162.892 6.74626L 167.256 6.74626L 170.132 21.8399L 173.635 6.74626L 177.343 6.74626L 180.832 21.8691ZM 207.895 17.8548C 207.895 19.9471 207.526 21.7815 206.786 23.358C 206.046 24.9346 204.986 26.151 203.604 27.0074C 202.232 27.8638 200.655 28.2919 198.874 28.2919C 197.113 28.2919 195.541 27.8686 194.159 27.022C 192.777 26.1753 191.707 24.9686 190.948 23.4018C 190.189 21.8253 189.804 20.0152 189.795 17.9716L 189.795 16.9206C 189.795 14.8283 190.169 12.9891 190.919 11.4028C 191.678 9.80684 192.743 8.58552 194.116 7.73888C 195.497 6.8825 197.074 6.45431 198.845 6.45431C 200.616 6.45431 202.188 6.8825 203.56 7.73888C 204.942 8.58552 206.008 9.80684 206.757 11.4028C 207.516 12.9891 207.895 14.8235 207.895 16.906L 207.895 17.8548ZM 203.458 16.8914C 203.458 14.6629 203.059 12.9696 202.261 11.8115C 201.463 10.6535 200.324 10.0745 198.845 10.0745C 197.376 10.0745 196.242 10.6486 195.444 11.7969C 194.646 12.9355 194.242 14.6094 194.232 16.8184L 194.232 17.8548C 194.232 20.025 194.631 21.7085 195.429 22.9055C 196.227 24.1025 197.376 24.701 198.874 24.701C 200.344 24.701 201.473 24.1268 202.261 22.9785C 203.049 21.8205 203.448 20.1369 203.458 17.9278L 203.458 16.8914ZM 218.946 20.2196L 215.457 20.2196L 215.457 28L 211.078 28L 211.078 6.74626L 218.975 6.74626C 221.486 6.74626 223.422 7.30582 224.785 8.42495C 226.147 9.54408 226.828 11.1255 226.828 13.1691C 226.828 14.6191 226.512 15.8307 225.879 16.8038C 225.257 17.7673 224.308 18.5361 223.033 19.1102L 227.631 27.7956L 227.631 28L 222.931 28L 218.946 20.2196ZM 215.457 16.6725L 218.989 16.6725C 220.089 16.6725 220.941 16.3951 221.544 15.8404C 222.147 15.276 222.449 14.5023 222.449 13.5194C 222.449 12.5171 222.162 11.7288 221.588 11.1547C 221.023 10.5805 220.152 10.2934 218.975 10.2934L 215.457 10.2934L 215.457 16.6725ZM 236.827 19.4751L 234.55 21.9275L 234.55 28L 230.171 28L 230.171 6.74626L 234.55 6.74626L 234.55 16.3805L 236.477 13.7384L 241.893 6.74626L 247.279 6.74626L 239.732 16.1907L 247.498 28L 242.287 28L 236.827 19.4751Z" transform="translate(64.2322 237.044)" fill="#B6B6B6"/>
</g>
<g id="e">
<path fill-rule="evenodd" clip-rule="evenodd" d="M 21.4285 31.3065L 52.3668 31.3065C 50.4648 21.8005 45.1394 16.8574 37.0244 16.8574C 29.2899 16.8574 23.4573 22.1807 21.4285 31.3065ZM 55.4099 56.5292L 71.8934 66.0352C 62.8908 78.3297 52.7471 83.9065 39.4336 83.9065C 16.4835 83.9065 1.5016e-06 66.4154 1.5016e-06 42.08C 1.5016e-06 18.2516 16.1031 7.79376e-07 36.8977 7.79376e-07C 57.4386 7.79376e-07 73.7953 18.6318 73.7953 41.6998C 73.7953 43.7277 73.6685 45.5022 73.4149 47.5301L 21.0481 47.5301C 22.3161 58.8106 29.5435 65.7817 39.9407 65.7817C 45.6466 65.7817 50.8452 62.613 55.4099 56.5292Z" transform="translate(152.125 143.437)" fill="#B6B6B6"/>
</g>
</g>
</g>
</g>
</g>
</g>
</g>
</g>
<defs>

<clipPath id="clip0">
<rect width="393" height="393" fill="white"/>
</clipPath>

</defs>
</svg>

