<?xml version="1.0" encoding="utf-8"?>
<!-- Generator: Adobe Illustrator 22.0.1, SVG Export Plug-In . SVG Version: 6.00 Build 0)  -->
<svg version="1.1" id="rakuten" xmlns="http://www.w3.org/2000/svg" xmlns:xlink="http://www.w3.org/1999/xlink" x="0px" y="0px"
	 viewBox="0 0 229.2 39" style="enable-background:new 0 0 229.2 39;" xml:space="preserve">
<style type="text/css">
	.st0{fill:#BF0000;}
</style>
<title>logo</title>
<g>
	<path class="st0" d="M19.4,13.2h-2.6v6.4h2.6c1.8,0,3.2-1.4,3.2-3.2C22.6,14.6,21.2,13.2,19.4,13.2z"/>
	<path class="st0" d="M19.3,0.4C8.6,0.4,0,9,0,19.7C0,30.4,8.6,39,19.3,39c10.7,0,19.3-8.6,19.3-19.3C38.6,9,30,0.4,19.3,0.4z
		 M24.4,30.1l-4.8-6.4h-2.8v6.4h-4V9.3h6.5c4,0,7.2,3.3,7.2,7.2c0,2.4-1.2,4.5-3,5.8l5.8,7.8H24.4z"/>
</g>
<path d="M169.1,29.3c-0.4,0.7-1.2,1.8-2.8,1.8c-1,0-3-0.7-3-3.3v-12h9.7V9.2h-9.7V2.3h-6.6v6.9H152v6.6h4.7v12
	c0,6.2,4.9,9.9,9.6,9.9c4.8,0,8-3.3,9.2-6.7L169.1,29.3z"/>
<path d="M87.4,9.2v1.2c-1.9-1.2-4.1-1.9-6.4-1.9c-7.2,0-13,6.6-13,14.6c0,8.1,5.8,14.6,13,14.6c2.3,0,4.5-0.7,6.4-1.9V37H94V9.2
	H87.4z M81,31.1c-3.5,0-6.4-3.6-6.4-8s2.9-8,6.4-8s6.4,3.6,6.4,8C87.4,27.6,84.6,31.1,81,31.1z"/>
<path d="M143.1,9.2v16.4c0,3.1-2.5,5.6-5.6,5.6s-5.6-2.5-5.6-5.6V9.2h-6.6v16.4c0,6.7,5.5,12.2,12.2,12.2c2,0,3.9-0.5,5.6-1.4v0.7
	h6.6V9.2H143.1z"/>
<path d="M217,8.6c-2,0-3.9,0.5-5.6,1.4V9.2h-6.6V37h6.6V20.7c0-3.1,2.5-5.6,5.6-5.6s5.6,2.5,5.6,5.6V37h6.6V20.7
	C229.1,14,223.7,8.6,217,8.6z"/>
<path d="M202.2,23.2c0-8.1-5.8-14.6-13-14.6c-7.3,0-13,6.4-13,14.6c0,8.6,7.4,14.6,14,14.6c3.3,0,7.9-1.1,11.5-6.2l-5.8-3.3
	c-4.9,6-11.7,1.9-12.4-3.1h18.6C202.1,24.5,202.2,23.8,202.2,23.2z M194.7,19.2h-11.1C184.8,13.8,193.5,12.7,194.7,19.2z"/>
<polygon points="111,22.3 124,9.2 114.7,9.2 104.6,19.3 104.6,0 98,0 98,37.1 104.6,37.1 104.6,25.3 116.4,37.1 125.8,37.1 "/>
<path d="M49.1,37.1V26.3h4.7l8.1,10.8h8.3l-9.8-13c3-2.2,5-5.7,5-9.8c0-6.6-5.4-12-12-12H42.5v34.8H49.1z M49.1,8.9h4.3
	c3,0,5.4,2.4,5.4,5.4s-2.4,5.4-5.4,5.4h-4.3V8.9z"/>
</svg>
