<svg xmlns="http://www.w3.org/2000/svg" viewBox="0 0 32 32">
  <title>rexicon-32-my-page-l</title>
  <g>
    <g>
      <path d="M29.038,24a13.9941,13.9941,0,0,0-4.3389-2.7385.4934.4934,0,0,1-.17-.793c1.2082-1.3113,1.4949-2.2295,1.4949-4.9685,0-3.5-2.0094-5.5-5.0245-5.5-3.0132,0-5.0226,2-5.0226,5.5,0,2.6609.2873,3.6411,1.4995,4.9705a.4927.4927,0,0,1-.1724.79A14.0016,14.0016,0,0,0,12.9625,24c-.648.645-.878,2.2939-.96,3.8823A2.0068,2.0068,0,0,0,14.0059,30H27.9941a2.0067,2.0067,0,0,0,2.0032-2.1174C29.9158,26.2939,29.6862,24.645,29.038,24ZM14,27.9851a7.2635,7.2635,0,0,1,.4221-2.6155,12.3379,12.3379,0,0,1,3.645-2.26,2.4928,2.4928,0,0,0,.887-3.9863c-.7263-.7964-.9774-1.1953-.9774-3.6228,0-1.5967.5244-3.5,3.0226-3.5s3.0245,1.9033,3.0245,3.5c0,2.4558-.2161,2.8-.9656,3.6133a2.4932,2.4932,0,0,0,.8776,3.9968A12.3277,12.3277,0,0,1,27.5784,25.37,7.2713,7.2713,0,0,1,27.9941,28Z" style="fill: #333"/>
      <rect x="6" y="7" width="11" height="2" style="fill: #333"/>
      <rect x="6" y="11" width="8" height="2" style="fill: #333"/>
      <rect x="6" y="15" width="5" height="2" style="fill: #333"/>
      <path d="M4,4H20V8h2V4a2,2,0,0,0-2-2H4A2,2,0,0,0,2,4V22a2,2,0,0,0,2,2h6V22H4Z" style="fill: #333"/>
    </g>
    <rect width="32" height="32" style="fill: none"/>
  </g>
</svg>
