<svg xmlns="http://www.w3.org/2000/svg" viewBox="0 0 32 32">
  <title>rexicon-32-my-page-f</title>
  <g>
    <g>
      <path d="M29.615,28.3254A18.5594,18.5594,0,0,0,29.2,26.0581a1.8749,1.8749,0,0,0-.59-.9748,14.82,14.82,0,0,0-3.9055-2.2757,1.5854,1.5854,0,0,1-.9563-1.115,1.5594,1.5594,0,0,1,.3918-1.4138c1.06-1.1255,1.3266-1.7759,1.3266-4.5288,0-3.0188-1.5819-4.75-4.3408-4.75s-4.3407,1.7312-4.3407,4.75c0,2.7529.2669,3.4033,1.3265,4.5288a1.5594,1.5594,0,0,1,.3917,1.4138,1.5852,1.5852,0,0,1-.9563,1.115,14.82,14.82,0,0,0-3.9054,2.2757,1.8736,1.8736,0,0,0-.59.9748,18.5594,18.5594,0,0,0-.4154,2.2673A1.51,1.51,0,0,0,14.1508,30h13.95A1.51,1.51,0,0,0,29.615,28.3254Z" style="fill: #333"/>
      <path d="M14.7852,15.75c0-4.1006,2.4888-6.75,6.3407-6.75A7.8007,7.8007,0,0,1,22,9.0535V4a2,2,0,0,0-2-2H4A2,2,0,0,0,2,4V22a2,2,0,0,0,2,2h7.9109a3.7438,3.7438,0,0,1,.4321-.4377,16.3413,16.3413,0,0,1,3.9015-2.375C15.0078,19.7019,14.7852,18.4141,14.7852,15.75ZM6,7H16V9H6Zm4,10H6V15h4Zm3-4H6V11h7Z" style="fill: #333"/>
    </g>
    <rect width="32" height="32" style="fill: none"/>
  </g>
</svg>
