<svg xmlns="http://www.w3.org/2000/svg" viewBox="0 0 32 32"><title>rexicon-32-cloud-l</title><path fill="none" d="M0 0h32v32H0z"/><path d="M14 8a6.018 6.018 0 0 1 5.628 3.94l.657 1.794 1.822-.574A2.96 2.96 0 0 1 23 13a2.933 2.933 0 0 1 2.867 3.808l-.356 1.263 1.016.83a3.996 3.996 0 0 1-2.192 7.08l-.191.019H9a4.996 4.996 0 0 1-2.117-9.523l1.258-.59-.114-1.385A6.066 6.066 0 0 1 8 14a6.007 6.007 0 0 1 6-6m0-2a8 8 0 0 0-8 8c0 .225.015.446.034.666A6.996 6.996 0 0 0 9 28h15.5v-.025a5.996 5.996 0 0 0 3.292-10.624A4.947 4.947 0 0 0 28 16a5 5 0 0 0-5-5 4.946 4.946 0 0 0-1.494.253A7.995 7.995 0 0 0 14 6z" fill="#333"/></svg>