<svg xmlns="http://www.w3.org/2000/svg" viewBox="0 0 32 32">
  <title>rexicon-32-close-account-l</title>
  <g>
    <rect width="32" height="32" style="fill: none"/>
    <g>
      <path d="M24,18a6,6,0,1,0,6,6A6,6,0,0,0,24,18Zm0,10a3.9963,3.9963,0,0,1-3.858-3h7.716A3.9963,3.9963,0,0,1,24,28Zm-3.858-5a3.9807,3.9807,0,0,1,7.716,0Z" style="fill: #333"/>
      <path d="M4.0084,28.0161c.0193-1.5517.0783-6.2744,1.4058-7.6018A21.4361,21.4361,0,0,1,9.8268,17.36a2.9895,2.9895,0,0,0,.7157-4.6628C9.5574,11.646,9,10.91,9,8a3.7573,3.7573,0,0,1,3.9985-4A3.7586,3.7586,0,0,1,17,8c0,2.91-.5574,3.646-1.5427,4.697a2.9892,2.9892,0,0,0,.7163,4.6626c.722.4021,1.3879.802,1.9868,1.19a8.0319,8.0319,0,0,1,1.61-1.3276c-.9437-.6426-1.9069-1.21-2.624-1.61a.9893.9893,0,0,1-.23-1.5476C18.3055,12.5833,19,11.3333,19,8a5.7644,5.7644,0,0,0-6.0015-6A5.7636,5.7636,0,0,0,7,8c0,3.3333.6945,4.5833,2.0834,6.0647a.9893.9893,0,0,1-.23,1.5476A24.2826,24.2826,0,0,0,4,19c-1.6755,1.6755-1.9474,5.4565-1.9915,8.9912A1.985,1.985,0,0,0,3.9961,30h14.73a8.0445,8.0445,0,0,1-1.641-1.9956Z" style="fill: #333"/>
    </g>
  </g>
</svg>
