<svg xmlns="http://www.w3.org/2000/svg" viewBox="0 0 32 32">
  <title>rexicon-32-close-account-f</title>
  <g>
    <rect width="32" height="32" style="fill: none"/>
    <g>
      <path d="M24,18a6,6,0,1,0,6,6A6,6,0,0,0,24,18Zm0,10a3.9963,3.9963,0,0,1-3.858-3h7.716A3.9963,3.9963,0,0,1,24,28Zm-3.858-5a3.9807,3.9807,0,0,1,7.716,0Z" style="fill: #333"/>
      <path d="M16,24a7.9942,7.9942,0,0,1,3.77-6.7781c-.9437-.6423-1.9069-1.21-2.624-1.61a.989.989,0,0,1-.23-1.5474C18.3055,12.5833,19,11.3333,19,8a5.7644,5.7644,0,0,0-6.0015-6A5.7636,5.7636,0,0,0,7,8c0,3.3333.6945,4.5833,2.0834,6.0649a.9891.9891,0,0,1-.23,1.5474A24.2826,24.2826,0,0,0,4,19c-1.6755,1.6755-1.9473,5.4565-1.9915,8.9912A1.985,1.985,0,0,0,3.9961,30h14.73A7.9758,7.9758,0,0,1,16,24Z" style="fill: #333"/>
    </g>
  </g>
</svg>
